<svg width="1312" height="217" viewBox="0 0 1312 217" fill="none" xmlns="http://www.w3.org/2000/svg">
<path d="M330.864 22V193H360.744V22H330.864Z" fill="white"/>
<path d="M401.829 22V51.8933H511.981C520.591 51.8933 524.895 56.4533 524.895 63.04C524.895 68.8667 521.603 73.4267 516.033 75.7067L423.353 115.48C404.868 123.333 395.752 136 395.752 155.507C395.752 179.32 409.679 193 437.027 193H551.737V163.107H439.053C430.697 163.107 426.392 158.547 426.392 151.96C426.392 146.133 429.684 141.573 435.001 139.293L528.187 99.52C546.419 91.6667 555.535 79 555.535 59.4933C555.535 35.68 541.355 22 514.007 22H401.829Z" fill="white"/>
<path d="M590.015 22V51.8933H700.167C708.776 51.8933 713.081 56.4533 713.081 63.04C713.081 68.8667 709.789 73.4267 704.218 75.7067L611.539 115.48C593.054 123.333 583.938 136 583.938 155.507C583.938 179.32 597.865 193 625.213 193H739.923V163.107H627.239C618.882 163.107 614.578 158.547 614.578 151.96C614.578 146.133 617.87 141.573 623.187 139.293L716.373 99.52C734.605 91.6667 743.721 79 743.721 59.4933C743.721 35.68 729.541 22 702.193 22H590.015Z" fill="white"/>
<path d="M778.201 22V51.8933H888.353C896.962 51.8933 901.267 56.4533 901.267 63.04C901.267 68.8667 897.975 73.4267 892.404 75.7067L799.725 115.48C781.24 123.333 772.124 136 772.124 155.507C772.124 179.32 786.051 193 813.399 193H928.109V163.107H815.425C807.068 163.107 802.764 158.547 802.764 151.96C802.764 146.133 806.055 141.573 811.373 139.293L904.559 99.52C922.791 91.6667 931.907 79 931.907 59.4933C931.907 35.68 917.727 22 890.379 22H778.201Z" fill="white"/>
<path d="M964.868 22V133.973C964.868 168.173 982.593 193 1027.92 193H1096.04V163.107H1029.69C1002.85 163.107 994.748 150.187 994.748 133.72V22H964.868Z" fill="white"/>
<path d="M1124.16 22V193H1154.04V22H1124.16Z" fill="white"/>
<path d="M1181.96 22V51.8933H1231.85V193H1261.98V51.8933H1311.86V22H1181.96Z" fill="white"/>
<path fill-rule="evenodd" clip-rule="evenodd" d="M235.244 103.745C238.991 103.745 240.681 99.0547 237.795 96.6646L122.177 0.91923C120.697 -0.306408 118.555 -0.306411 117.075 0.919227L1.45672 96.6646C-1.42944 99.0547 0.260632 103.745 4.00796 103.745H19.5554C21.7646 103.745 23.5554 105.536 23.5554 107.745V212.567C23.5554 214.776 25.3463 216.567 27.5554 216.567H91.5436V144.637H147.708V216.567H211.697C213.906 216.567 215.697 214.776 215.697 212.567V107.745C215.697 105.536 217.488 103.745 219.697 103.745H235.244ZM106.441 131.335C109.117 132.375 115.426 133.82 121.205 133.715C126.252 133.623 130.805 130.988 134.587 127.645C135.486 126.851 136.316 126.055 137.088 125.242C144.275 117.667 145.047 106.135 142.459 96.0197C138.327 79.876 129.769 67.8349 120.838 59.4697C120.581 59.2293 120.163 59.3824 120.107 59.7295C118.152 71.7852 114.677 79.6851 106.091 88.949C105.79 89.2732 105.488 89.5978 105.184 89.9232C100.995 94.4163 96.6625 99.0627 95.7835 105.104C94.1354 116.43 99.5431 128.652 106.441 131.335Z" fill="#F36877"/>
</svg>
