<svg width="240" height="217" viewBox="0 0 240 217" fill="none" xmlns="http://www.w3.org/2000/svg">
<path fill-rule="evenodd" clip-rule="evenodd" d="M235.244 103.745C238.991 103.745 240.681 99.0547 237.795 96.6646L122.177 0.91923C120.697 -0.306408 118.555 -0.306411 117.075 0.919227L1.45672 96.6646C-1.42944 99.0547 0.260632 103.745 4.00796 103.745H19.5554C21.7646 103.745 23.5554 105.536 23.5554 107.745V212.567C23.5554 214.776 25.3463 216.567 27.5554 216.567H91.5436V144.637H147.708V216.567H211.697C213.906 216.567 215.697 214.776 215.697 212.567V107.745C215.697 105.536 217.488 103.745 219.697 103.745H235.244ZM106.441 131.335C109.117 132.375 115.426 133.82 121.205 133.715C126.252 133.623 130.805 130.988 134.587 127.645C135.486 126.851 136.316 126.055 137.088 125.242C144.275 117.667 145.047 106.135 142.459 96.0197C138.327 79.876 129.769 67.8349 120.838 59.4697C120.581 59.2293 120.163 59.3824 120.107 59.7295C118.152 71.7852 114.677 79.6851 106.091 88.949C105.79 89.2732 105.488 89.5978 105.184 89.9232C100.995 94.4163 96.6625 99.0627 95.7835 105.104C94.1355 116.43 99.5431 128.652 106.441 131.335Z" fill="#F36877"/>
</svg>
